HIERARCHY
ROOT Hips
{
  OFFSET 5.80788e-005 67.184 3.4734
  CHANNELS 6 Xposition Yposition Zposition Zrotation Xrotation Yrotation
  JOINT Chest
  {
    OFFSET 0 8.7983 -4.7612
    CHANNELS 3 Zrotation Xrotation Yrotation
    JOINT Chest2
    {
      OFFSET 0 8.0291 0.4195
      CHANNELS 3 Zrotation Xrotation Yrotation
      JOINT Chest3
      {
        OFFSET 0 9.9351 -2.2114
        CHANNELS 3 Zrotation Xrotation Yrotation
        JOINT Neck
        {
          OFFSET 0 22.3885 -0.4656
          CHANNELS 3 Zrotation Xrotation Yrotation
          JOINT Head
          {
            OFFSET -0.0001 12.643 3.4389
            CHANNELS 3 Zrotation Xrotation Yrotation
            End Site
            {
              OFFSET 0.0001 17.6655 0.5274
            }
          }
        }
        JOINT LeftCollar
        {
          OFFSET 2.2603 21.606 7.4023
          CHANNELS 3 Zrotation Xrotation Yrotation
          JOINT LeftShoulder
          {
            OFFSET 13.5163 -1.1332 -5.0146
            CHANNELS 3 Zrotation Xrotation Yrotation
            JOINT LeftElbow
            {
              OFFSET -0.0995 -28.05 -0.2431
              CHANNELS 3 Zrotation Xrotation Yrotation
              JOINT LeftWrist
              {
                OFFSET 0.0679 -23.3996 -0.1402
                CHANNELS 3 Zrotation Xrotation Yrotation
                JOINT LeftFinger1
                {
                  OFFSET 0.7932 -9.069 2.5189
                  CHANNELS 3 Zrotation Xrotation Yrotation
                  JOINT LeftFinger11
                  {
                    OFFSET -0.8272 -3.3923 0.5977
                    CHANNELS 3 Zrotation Xrotation Yrotation
                    JOINT LeftFinger12
                    {
                      OFFSET -0.5649 -2.3158 0.4082
                      CHANNELS 3 Zrotation Xrotation Yrotation
                      End Site
                      {
                        OFFSET -0.4919 -1.6479 0.2673
                      }
                    }
                  }
                }
                JOINT LeftFinger2
                {
                  OFFSET 0.9159 -9.2044 0.2193
                  CHANNELS 3 Zrotation Xrotation Yrotation
                  JOINT LeftFinger21
                  {
                    OFFSET 0.0117 -4.1944 -0.0248
                    CHANNELS 3 Zrotation Xrotation Yrotation
                    JOINT LeftFinger22
                    {
                      OFFSET 0.0071 -2.3249 -0.0142
                      CHANNELS 3 Zrotation Xrotation Yrotation
                      End Site
                      {
                        OFFSET -0.1475 -2.0882 0.0028
                      }
                    }
                  }
                }
                JOINT LeftFinger3
                {
                  OFFSET 0.6113 -8.7231 -2.0637
                  CHANNELS 3 Zrotation Xrotation Yrotation
                  JOINT LeftFinger31
                  {
                    OFFSET -0.1927 -3.8059 -0.2383
                    CHANNELS 3 Zrotation Xrotation Yrotation
                    JOINT LeftFinger32
                    {
                      OFFSET -0.1091 -2.1688 -0.1362
                      CHANNELS 3 Zrotation Xrotation Yrotation
                      End Site
                      {
                        OFFSET -0.2358 -1.9176 -0.0906
                      }
                    }
                  }
                }
                JOINT LeftFinger4
                {
                  OFFSET -0.6151 -8.0947 -3.5641
                  CHANNELS 3 Zrotation Xrotation Yrotation
                  JOINT LeftFinger41
                  {
                    OFFSET -0.4882 -2.341 -0.6462
                    CHANNELS 3 Zrotation Xrotation Yrotation
                    JOINT LeftFinger42
                    {
                      OFFSET -0.3575 -1.7167 -0.4742
                      CHANNELS 3 Zrotation Xrotation Yrotation
                      End Site
                      {
                        OFFSET -0.4187 -1.5237 -0.3496
                      }
                    }
                  }
                }
                JOINT LeftFinger0
                {
                  OFFSET -1.42 -1.8761 1.4223
                  CHANNELS 3 Zrotation Xrotation Yrotation
                  JOINT LeftFinger01
                  {
                    OFFSET -1.1471 -3.4929 2.6334
                    CHANNELS 3 Zrotation Xrotation Yrotation
                    JOINT LeftFinger02
                    {
                      OFFSET -0.823 -2.3 1.6571
                      CHANNELS 3 Zrotation Xrotation Yrotation
                      End Site
                      {
                        OFFSET -0.5822 -1.6914 1.1582
                      }
                    }
                  }
                }
              }
            }
          }
        }
        JOINT RightCollar
        {
          OFFSET -2.2603 21.606 7.4023
          CHANNELS 3 Zrotation Xrotation Yrotation
          JOINT RightShoulder
          {
            OFFSET -13.5187 -1.1334 -5.0155
            CHANNELS 3 Zrotation Xrotation Yrotation
            JOINT RightElbow
            {
              OFFSET 0.0994 -28.0499 -0.2431
              CHANNELS 3 Zrotation Xrotation Yrotation
              JOINT RightWrist
              {
                OFFSET -0.0679 -23.3996 -0.1402
                CHANNELS 3 Zrotation Xrotation Yrotation
                JOINT RightFinger1
                {
                  OFFSET -0.7932 -9.0691 2.5189
                  CHANNELS 3 Zrotation Xrotation Yrotation
                  JOINT RightFinger11
                  {
                    OFFSET 0.8272 -3.3923 0.5977
                    CHANNELS 3 Zrotation Xrotation Yrotation
                    JOINT RightFinger12
                    {
                      OFFSET 0.565 -2.3158 0.4082
                      CHANNELS 3 Zrotation Xrotation Yrotation
                      End Site
                      {
                        OFFSET 0.4919 -1.6479 0.2673
                      }
                    }
                  }
                }
                JOINT RightFinger2
                {
                  OFFSET -0.916 -9.2044 0.2193
                  CHANNELS 3 Zrotation Xrotation Yrotation
                  JOINT RightFinger21
                  {
                    OFFSET -0.0117 -4.1944 -0.0248
                    CHANNELS 3 Zrotation Xrotation Yrotation
                    JOINT RightFinger22
                    {
                      OFFSET -0.0071 -2.3249 -0.0142
                      CHANNELS 3 Zrotation Xrotation Yrotation
                      End Site
                      {
                        OFFSET 0.1475 -2.0882 0.0028
                      }
                    }
                  }
                }
                JOINT RightFinger3
                {
                  OFFSET -0.6113 -8.7231 -2.0637
                  CHANNELS 3 Zrotation Xrotation Yrotation
                  JOINT RightFinger31
                  {
                    OFFSET 0.1927 -3.8059 -0.2383
                    CHANNELS 3 Zrotation Xrotation Yrotation
                    JOINT RightFinger32
                    {
                      OFFSET 0.1091 -2.1688 -0.1362
                      CHANNELS 3 Zrotation Xrotation Yrotation
                      End Site
                      {
                        OFFSET 0.2358 -1.9176 -0.0906
                      }
                    }
                  }
                }
                JOINT RightFinger4
                {
                  OFFSET 0.6151 -8.0947 -3.564
                  CHANNELS 3 Zrotation Xrotation Yrotation
                  JOINT RightFinger41
                  {
                    OFFSET 0.4882 -2.341 -0.6462
                    CHANNELS 3 Zrotation Xrotation Yrotation
                    JOINT RightFinger42
                    {
                      OFFSET 0.3574 -1.7166 -0.4742
                      CHANNELS 3 Zrotation Xrotation Yrotation
                      End Site
                      {
                        OFFSET 0.4187 -1.5237 -0.3496
                      }
                    }
                  }
                }
                JOINT RightFinger0
                {
                  OFFSET 1.4199 -1.8761 1.4221
                  CHANNELS 3 Zrotation Xrotation Yrotation
                  JOINT RightFinger01
                  {
                    OFFSET 1.1472 -3.4929 2.6336
                    CHANNELS 3 Zrotation Xrotation Yrotation
                    JOINT RightFinger02
                    {
                      OFFSET 0.8229 -2.3 1.6571
                      CHANNELS 3 Zrotation Xrotation Yrotation
                      End Site
                      {
                        OFFSET 0.5822 -1.6914 1.1582
                      }
                    }
                  }
                }
              }
            }
          }
        }
      }
    }
  }
  JOINT RightHip
  {
    OFFSET -9.412 3.9771 -0.7758
    CHANNELS 3 Zrotation Xrotation Yrotation
    JOINT RightKnee
    {
      OFFSET -0.7531 -40.938 0
      CHANNELS 3 Zrotation Xrotation Yrotation
      JOINT RightAnkle
      {
        OFFSET 0 -40.1986 0
        CHANNELS 3 Zrotation Xrotation Yrotation
        JOINT RightToe
        {
          OFFSET 0 -4.4182 9.239
          CHANNELS 3 Zrotation Xrotation Yrotation
          End Site
          {
            OFFSET 0 0 6.1981
          }
        }
      }
    }
  }
  JOINT LeftHip
  {
    OFFSET 9.4119 3.9773 -0.7758
    CHANNELS 3 Zrotation Xrotation Yrotation
    JOINT LeftKnee
    {
      OFFSET 0.7532 -40.9383 0
      CHANNELS 3 Zrotation Xrotation Yrotation
      JOINT LeftAnkle
      {
        OFFSET 0 -40.1986 0
        CHANNELS 3 Zrotation Xrotation Yrotation
        JOINT LeftToe
        {
          OFFSET 0 -4.4182 9.239
          CHANNELS 3 Zrotation Xrotation Yrotation
          End Site
          {
            OFFSET 0 0 6.1981
          }
        }
      }
    }
  }
}
MOTION
Frames:	4
Frame Time:	0.0333333
5.80788e-005 67.184 3.4734 0 0 -0 0 0 -0 0 0 -0 0 0 -0 0 0 -0 0 0 -0 0 0 -12.5014 88.1196 14.2452 10.6871 -0.00147512 -0.00229545 0.000727952 -8.42584e-005 7.00394e-005 -9.48737e-007 4.96962e-017 0 -0 -5.51738e-033 1.98785e-016 1.59028e-015 -9.93923e-017 3.97569e-016 1.59028e-015 4.96962e-017 0 -0 -0.012804 0.00232152 8.42841e-005 3.97569e-016 -1.98785e-016 1.59028e-015 4.96962e-017 0 -0 -0.0161164 0.00300696 0.000858528 -4.96962e-017 1.98785e-016 -0 4.96962e-017 0 -0 -0.0125095 0.00310281 0.00280669 -1.10348e-032 -3.97569e-016 -1.59028e-015 4.96962e-017 0 -0 -5.51738e-033 1.98785e-016 1.59028e-015 -9.93923e-017 3.97569e-016 1.59028e-015 -0.865644 0.16582 7.03859 -88.033 10.2056 -10.5536 0.00143707 -0.00239318 -0.000794626 7.87444e-005 4.15182e-005 1.22551e-005 2.98177e-016 1.19271e-015 -0 3.97569e-016 7.95139e-016 -3.18055e-015 3.97569e-016 3.97569e-016 -4.77083e-015 2.98177e-016 1.19271e-015 -0 0.012927 0.00231302 -8.79341e-005 1.98785e-016 7.95139e-016 -3.18055e-015 2.98177e-016 1.19271e-015 -0 0.0163862 0.00304401 -0.000875647 1.26228e-014 2.78299e-015 -0 2.98177e-016 1.19271e-015 -0 0.0146461 0.00369403 -0.00327927 5.96354e-016 -7.95139e-016 -3.18055e-015 2.98177e-016 1.19271e-015 -0 3.97569e-016 7.95139e-016 -3.18055e-015 3.97569e-016 3.97569e-016 -4.77083e-015 3.42485 1.36937 -0.0640303 0.000136572 0.69354 0.00145564 -3.42573 -2.06297 -0.0607933 -3.19502e-024 0 -1.48106e-024 -3.42498 1.36123 0.0639712 -6.769e-005 0.712612 -0.0012277 3.42582 -2.07388 0.0612819 2.55305e-023 0 -2.31416e-026 
1.74763 28.5722 -3.7979 -7.05968e-009 30.8055 1.37851e-008 -0.291996 1.79216 -0.652658 -0.563953 3.58753 -1.29712 -0.563953 3.58753 -1.29712 3.53928e-005 -20.1925 4.60594e-005 1.60291e-006 0.412795 5.69689e-007 -14.3723 -6.74178 -30.3518 38.8727 -18.1964 20.1262 -86.4521 -36.0652 -56.7481 61.4378 -17.0842 10.6914 1.269e-031 1.59028e-015 -4.57205e-015 3.97569e-016 0 1.88845e-015 3.97569e-016 0 2.13694e-015 1.269e-031 1.59028e-015 -4.57205e-015 -0.0128213 0.00232786 9.36778e-005 -1.98785e-015 -1.59028e-015 -1.73937e-015 1.269e-031 1.59028e-015 -4.57205e-015 -0.0160516 0.00299845 0.000858547 3.97569e-016 -1.59028e-015 2.48481e-015 1.269e-031 1.59028e-015 -4.57205e-015 -0.0125897 0.00313528 0.00282741 -7.95139e-016 0 -1.14301e-015 1.269e-031 1.59028e-015 -4.57205e-015 3.97569e-016 0 1.88845e-015 3.97569e-016 0 2.13694e-015 7.62107 -8.63684 25.0251 -37.4338 -22.3784 -15.9089 86.3727 -36.3944 57.2286 -50.7125 -15.6002 -10.1513 3.79432e-006 -1.53221e-007 -1.13063e-005 2.89314e-006 1.05413e-006 1.43654e-006 -3.18055e-015 1.59028e-015 -3.97569e-016 3.79432e-006 -1.53221e-007 -1.13063e-005 0.0129558 0.00230277 -8.73788e-005 8.82781e-032 -3.18055e-015 1.59028e-015 3.79432e-006 -1.53221e-007 -1.13063e-005 0.0163178 0.00301127 -0.000876029 4.41391e-032 3.18055e-015 -7.95139e-016 3.79432e-006 -1.53221e-007 -1.13063e-005 0.0145646 0.00365596 -0.00325458 0 0 -3.97569e-016 3.79432e-006 -1.53221e-007 -1.13063e-005 2.89314e-006 1.05413e-006 1.43654e-006 -3.18055e-015 1.59028e-015 -3.97569e-016 -11.4602 -36.7778 -22.4389 -174.259 70.3853 171.275 24.8856 48.9823 -32.5161 -1.79312e-006 2.53098e-006 -1.41653e-006 11.248 -36.6584 22.2184 174.624 70.5382 -171.576 -23.9555 47.8666 31.6951 -2.94695e-007 1.86806e-008 -7.93113e-007 
1.64491 30.7776 -2.84823 -2.41789e-008 28.9934 -2.12675e-007 -0.287319 1.89843 -0.603218 -0.555071 3.79974 -1.19789 -0.555069 3.79974 -1.19789 -2.19849e-006 -19.0046 -3.14604e-006 3.96867e-008 0.504511 -3.37569e-007 -13.4097 -6.38123 -29.2888 41.3331 -15.5795 19.6429 -82.0377 -33.4032 -54.0844 56.7004 -17.3489 9.02123 1.59028e-015 -1.59028e-015 -2.38542e-015 0 0 -1.59028e-015 1.10348e-031 3.18055e-015 -1.98785e-015 1.59028e-015 -1.59028e-015 -2.38542e-015 -0.0128213 0.00234802 8.77953e-005 -1.59028e-015 1.59028e-015 1.59028e-015 1.59028e-015 -1.59028e-015 -2.38542e-015 -0.0160382 0.00299561 0.000849763 4.77083e-015 4.77083e-015 3.97569e-016 1.59028e-015 -1.59028e-015 -2.38542e-015 -0.0126022 0.00313139 0.00282932 -1.59028e-015 0 -7.95139e-016 1.59028e-015 -1.59028e-015 -2.38542e-015 0 0 -1.59028e-015 1.10348e-031 3.18055e-015 -1.98785e-015 7.52352 -8.03526 23.6593 -40.1101 -19.7377 -15.6208 81.9174 -33.7549 54.6015 -47.1516 -15.8877 -8.89675 8.82781e-032 3.18055e-015 -1.59028e-015 1.76556e-031 6.36111e-015 -1.59028e-015 0 4.77083e-015 -0 8.82781e-032 3.18055e-015 -1.59028e-015 0.0129601 0.00232068 -9.4081e-005 1.1275e-006 -1.20043e-006 -4.11653e-006 8.82781e-032 3.18055e-015 -1.59028e-015 0.0163471 0.00303422 -0.000878118 -3.18055e-015 3.18055e-015 -7.95139e-016 8.82781e-032 3.18055e-015 -1.59028e-015 0.0145916 0.00369752 -0.00326285 1.90508e-006 -2.48218e-005 9.73984e-006 8.82781e-032 3.18055e-015 -1.59028e-015 1.76556e-031 6.36111e-015 -1.59028e-015 0 4.77083e-015 -0 -9.73479 -34.0066 -20.2454 -172.172 77.0528 169.624 20.5459 46.4838 -28.5855 3.18055e-015 1.8363e-008 -1.59028e-015 9.54973 -33.8978 20.0455 172.651 77.2131 -170.029 -19.8301 45.4057 27.9609 4.77083e-015 -2.22639e-014 -0 
1.64491 30.7818 -2.35425 -9.72346e-008 28.9934 2.82028e-008 -0.288828 2.09832 -0.599323 -0.55622 4.19951 -1.18924 -0.556221 4.19953 -1.18925 9.84625e-006 -19.0047 1.256e-005 5.37983e-007 0.614071 7.55494e-007 -13.4096 -6.38129 -29.2888 41.1694 -15.1006 19.649 -82.0379 -33.4031 -54.0842 55.7511 -18.305 8.2323 -4.17023e-007 -9.37903e-007 5.15166e-006 2.0284e-006 -4.23919e-007 2.3066e-006 9.83712e-007 -1.88859e-005 2.98343e-006 -4.17023e-007 -9.37903e-007 5.15166e-006 -0.0128414 0.00231258 8.86794e-005 2.02826e-006 -4.15665e-007 2.30668e-006 -4.17023e-007 -9.37903e-007 5.15166e-006 -0.0160435 0.00299952 0.000865073 -8.89592e-007 -1.40959e-005 -1.09105e-006 -4.17023e-007 -9.37903e-007 5.15166e-006 -0.0125941 0.00310918 0.00283001 2.84096e-006 -4.24421e-007 2.52779e-006 -4.17023e-007 -9.37903e-007 5.15166e-006 2.0284e-006 -4.23919e-007 2.3066e-006 9.83712e-007 -1.88859e-005 2.98343e-006 8.04806 -7.91473 23.3882 -39.9668 -19.1652 -15.6181 81.9167 -33.7551 54.6026 -46.6956 -16.8587 -8.41259 -2.56291e-006 -7.06132e-007 -2.97478e-006 -4.08983e-006 5.96013e-006 5.05547e-007 2.27666e-006 2.61714e-007 -2.00082e-006 -2.56291e-006 -7.06132e-007 -2.97478e-006 0.0129406 0.00231658 -8.93584e-005 -2.39092e-006 -3.19189e-006 -4.51773e-006 -2.56291e-006 -7.06132e-007 -2.97478e-006 0.0163349 0.00302084 -0.000866915 -1.6357e-006 -2.12073e-006 -4.64791e-006 -2.56291e-006 -7.06132e-007 -2.97478e-006 0.0145497 0.00368475 -0.00327245 -5.66148e-007 -2.05884e-005 -1.16904e-006 -2.56291e-006 -7.06132e-007 -2.97478e-006 -4.08983e-006 5.96013e-006 5.05547e-007 2.27666e-006 2.61714e-007 -2.00082e-006 -9.63793 -33.3192 -20.0805 -172.046 77.6876 169.543 20.5171 46.495 -28.5496 -3.32286e-006 8.58889e-007 1.63602e-007 9.45343 -33.209 19.8793 172.557 77.8555 -169.975 -19.803 45.4172 27.9259 3.97569e-015 2.04662e-008 -3.18055e-015 
